<svg data-v-0dd9719b="" version="1.0" xmlns="http://www.w3.org/2000/svg" xmlns:xlink="http://www.w3.org/1999/xlink" width="100%" height="100%" viewBox="0 0 340.000000 250.000000" preserveAspectRatio="xMidYMid meet" color-interpolation-filters="sRGB" style="margin: auto;">   <g data-v-0dd9719b="" fill="#09f524" class="icon-text-wrapper icon-svg-group iconsvg" transform="translate(111.20000076293945,58.72407531738281)"><g class="iconsvg-imagesvg" transform="translate(0,0)" mask="url(#541ad0e7-a313-4d6c-aaca-360680ecde1e)"><g><rect fill="#09f524" fill-opacity="0" stroke-width="2" x="0" y="0" width="117.60000000000005" height="132.5518485121732" class="image-rect"></rect> <svg x="0" y="0" width="117.60000000000005" height="132.5518485121732" filtersec="colorsb3894718489" class="image-svg-svg primary" style="overflow: visible;"><svg xmlns="http://www.w3.org/2000/svg" viewBox="0.010680079460144043 -0.007637665141373873 60.91294860839844 68.657470703125"><defs><linearGradient id="46fec06d-ba52-4c57-a09e-16ea2a0900d0" y1="34.32" x2="60.93" y2="34.32" gradientUnits="userSpaceOnUse"><stop offset="0" stop-color="#DC322F"></stop><stop offset=".47" stop-color="#DC322F"></stop><stop offset=".99" stop-color="#DC322F"></stop></linearGradient></defs><path d="M41.71 0a19.77 19.77 0 0 1 8 1.45C53.31 3 60.26 13.14 60.22 17.08s-2 7.06-4.46 9.9a2.07 2.07 0 0 0-.18 3.02c1.28 1.82 2.34 3.81 3.62 5.62 2.22 3.14 2.13 6.41.67 9.72-2.13 4.9-5.76 8.56-9.87 11.71-8.79 6.65-18.57 10.85-29.6 11.54-6.13.38-11.7-.94-14.82-7.15A27.3 27.3 0 0 0 3 57.4C.23 53.75.19 50 2.2 46a19.42 19.42 0 0 1 3.17-4.65 1.74 1.74 0 0 0 .19-2.57C4.32 37 3.27 35.12 2 33.39c-2.9-3.92-2.35-7.85-.14-11.76a33.86 33.86 0 0 1 8.4-9.49C19 5.05 32 0 41.71 0zM18.87 44.53c12.76-.62 23.64-5.75 33.21-14 2.27-2 2.2-2.76-.37-4.33A16.93 16.93 0 0 0 41.43 24c-12.86 1-23.84 6.25-33.37 14.8-1.05.94-1.16 1.62 0 2.65 3.13 2.77 6.94 3.01 10.81 3.08z" fill="url(#46fec06d-ba52-4c57-a09e-16ea2a0900d0)"></path></svg></svg> <!----></g><rect v-gra="id" width="129.5999984741211" height="144.55184936523438" transform="translate(-6, -6)" style="pointer-events:none;" fill="url(#v009hLBJNm-YtkB4eNhcS)"></rect></g> <g transform="translate(58.79999923706055,138.55184936523438)"><g data-gra="path-name" fill-rule="" class="tp-name iconsvg-namesvg" fill="url(#c67e304a-bc96-447c-841a-e2290ca72c14)"><g transform="scale(1)"><g><path d="" transform="translate(0, 0)"></path></g> <!----> <!----> <!----> <!----> <!----> <!----> <!----></g></g> <!----></g></g><defs v-gra="od"><linearGradient x1="0" y1="1" x2="0" y2="0" id="c67e304a-bc96-447c-841a-e2290ca72c14"><stop offset="0%" stop-color="#09f524"></stop><stop offset="50%" stop-color="#2ec0c6"></stop><stop offset="100%" stop-color="#06fff7"></stop></linearGradient><filter id="42443b3f1de60f6b6fd3b6a9844b4764" filterUnits="objectBoundingBox"><feColorMatrix type="matrix" values="0 0 0 0 0.99609375  0 0 0 0 0.99609375  0 0 0 0 0.99609375  0 0 0 1 0"></feColorMatrix></filter></defs><defs v-gra="id"><filter id="773e6075-db64-4850-b54b-3225ce77323c" filterUnits="userSpaceOnUse"><feColorMatrix type="matrix" values="0 0 0 0 0.99609375  0 0 0 0 0.99609375  0 0 0 0 0.99609375  0 0 0 1 0"></feColorMatrix></filter><linearGradient x1="0" y1="1" x2="0" y2="0" id="v009hLBJNm-YtkB4eNhcS"><stop offset="0%" stop-color="#009eff"></stop><stop offset="100%" stop-color="#dc322f"></stop></linearGradient><filter id="42443b3f1de60f6b6fd3b6a9844b4764" filterUnits="objectBoundingBox"><feColorMatrix type="matrix" values="0 0 0 0 0.99609375  0 0 0 0 0.99609375  0 0 0 0 0.99609375  0 0 0 1 0"></feColorMatrix></filter></defs><mask v-gra="im" id="541ad0e7-a313-4d6c-aaca-360680ecde1e"><g class="iconsvg-imagesvg" filter="url(#773e6075-db64-4850-b54b-3225ce77323c)"><g><rect fill="#09f524" fill-opacity="0" stroke-width="2" x="0" y="0" width="117.60000000000005" height="132.5518485121732" class="image-rect"></rect> <svg x="0" y="0" width="117.60000000000005" height="132.5518485121732" filtersec="colorsb3894718489" class="image-svg-svg primary" style="overflow: visible;"><svg xmlns="http://www.w3.org/2000/svg" viewBox="0.010680079460144043 -0.007637665141373873 60.91294860839844 68.657470703125"><defs><linearGradient id="46fec06d-ba52-4c57-a09e-16ea2a0900d0" y1="34.32" x2="60.93" y2="34.32" gradientUnits="userSpaceOnUse"><stop offset="0" stop-color="#DC322F"></stop><stop offset=".47" stop-color="#DC322F"></stop><stop offset=".99" stop-color="#DC322F"></stop></linearGradient></defs><path d="M41.71 0a19.77 19.77 0 0 1 8 1.45C53.31 3 60.26 13.14 60.22 17.08s-2 7.06-4.46 9.9a2.07 2.07 0 0 0-.18 3.02c1.28 1.82 2.34 3.81 3.62 5.62 2.22 3.14 2.13 6.41.67 9.72-2.13 4.9-5.76 8.56-9.87 11.71-8.79 6.65-18.57 10.85-29.6 11.54-6.13.38-11.7-.94-14.82-7.15A27.3 27.3 0 0 0 3 57.4C.23 53.75.19 50 2.2 46a19.42 19.42 0 0 1 3.17-4.65 1.74 1.74 0 0 0 .19-2.57C4.32 37 3.27 35.12 2 33.39c-2.9-3.92-2.35-7.85-.14-11.76a33.86 33.86 0 0 1 8.4-9.49C19 5.05 32 0 41.71 0zM18.87 44.53c12.76-.62 23.64-5.75 33.21-14 2.27-2 2.2-2.76-.37-4.33A16.93 16.93 0 0 0 41.43 24c-12.86 1-23.84 6.25-33.37 14.8-1.05.94-1.16 1.62 0 2.65 3.13 2.77 6.94 3.01 10.81 3.08z" fill="url(#46fec06d-ba52-4c57-a09e-16ea2a0900d0)"></path></svg></svg> <!----></g></g></mask></svg>